<?xml version="1.0" encoding="UTF-8"?>
<svg xmlns="http://www.w3.org/2000/svg" width="133" height="39" viewBox="0 0 133 39" fill="none">
  <path d="M131.855 34.5393C131.855 35.5915 131.417 36.5465 130.72 37.2398C130.016 37.9271 129.047 38.359 127.98 38.359H104.746C103.678 38.359 102.709 37.9271 102.012 37.2398C101.308 36.5465 100.876 35.5915 100.876 34.5393C100.876 32.4348 99.1424 30.7257 97.001 30.7257C95.9335 30.7257 94.9646 30.2938 94.2673 29.6065C93.5638 28.9131 93.1318 27.9582 93.1318 26.906V11.6393C93.1318 10.5871 93.5638 9.63215 94.2673 8.94485C94.9646 8.25147 95.9335 7.8257 97.001 7.8257C98.0748 7.8257 99.0437 7.39994 99.741 6.70656C100.444 6.01926 100.876 5.06433 100.876 4.006C100.876 2.95376 101.308 1.99884 102.012 1.31154C102.709 0.618153 103.678 0.192383 104.746 0.192383H127.98C130.121 0.192383 131.855 1.90152 131.855 4.006C131.855 5.06433 131.417 6.01926 130.72 6.70656C130.016 7.39994 129.047 7.8257 127.98 7.8257H104.746C103.678 7.8257 102.709 8.25147 102.012 8.94485C101.308 9.63215 100.876 10.5871 100.876 11.6393V26.906C100.876 27.9582 101.308 28.9131 102.012 29.6065C102.709 30.2938 103.678 30.7257 104.746 30.7257H127.98C130.121 30.7257 131.855 32.4348 131.855 34.5393Z" fill="#E96E00"></path>
  <path fill-rule="evenodd" clip-rule="evenodd" d="M97.0013 8.02259C95.9152 8.02259 94.897 7.60291 94.1256 6.84262C93.3604 6.08841 92.9346 5.07874 92.9346 4.00825C92.9346 2.93776 93.3604 1.93418 94.1256 1.17388C94.897 0.419676 95.9152 0 97.0013 0C99.2475 0 101.068 1.80037 101.068 4.00825C101.068 5.07874 100.648 6.08841 99.877 6.84262C99.1118 7.60291 98.0874 8.02259 97.0013 8.02259ZM97.0013 0.389269C96.0201 0.389269 95.1006 0.766376 94.4033 1.4476C93.7121 2.1349 93.3295 3.04116 93.3295 4.00825C93.3295 4.98142 93.7121 5.88769 94.4033 6.57499C95.1006 7.25621 96.0201 7.63332 97.0013 7.63332C97.9886 7.63332 98.9081 7.25621 99.6054 6.57499C100.297 5.88769 100.679 4.98142 100.679 4.00825C100.679 2.01325 99.0315 0.389269 97.0013 0.389269Z" fill="#46D35B"></path>
  <path fill-rule="evenodd" clip-rule="evenodd" d="M104.736 15.6613C103.65 15.6613 102.631 15.2416 101.86 14.4813C101.095 13.7271 100.669 12.7174 100.669 11.6469C100.669 10.5764 101.095 9.57285 101.86 8.81256C102.631 8.05835 103.65 7.63867 104.736 7.63867C106.982 7.63867 108.802 9.43904 108.802 11.6469C108.802 12.7174 108.383 13.7271 107.611 14.4813C106.846 15.2416 105.822 15.6613 104.736 15.6613ZM104.736 8.02794C103.754 8.02794 102.835 8.39896 102.138 9.08626C101.44 9.77356 101.058 10.6798 101.058 11.6469C101.058 12.614 101.44 13.5264 102.138 14.2137C102.835 14.8949 103.754 15.272 104.736 15.272C105.717 15.272 106.642 14.8949 107.34 14.2137C108.031 13.5264 108.414 12.614 108.414 11.6469C108.414 9.65192 106.766 8.02794 104.736 8.02794Z" fill="#46D35B"></path>
  <path fill-rule="evenodd" clip-rule="evenodd" d="M112.482 15.6552C110.242 15.6552 108.415 13.8609 108.415 11.6469C108.415 9.43904 110.242 7.63867 112.482 7.63867C114.728 7.63867 116.548 9.43904 116.548 11.6469C116.548 13.8609 114.728 15.6552 112.482 15.6552ZM112.482 8.02185C110.458 8.02185 108.804 9.65192 108.804 11.6469C108.804 13.648 110.458 15.272 112.482 15.272C114.512 15.272 116.16 13.648 116.16 11.6469C116.16 9.65192 114.512 8.02185 112.482 8.02185Z" fill="#46D35B"></path>
  <path fill-rule="evenodd" clip-rule="evenodd" d="M120.237 15.6552C117.997 15.6552 116.17 13.8609 116.17 11.6469C116.17 9.43904 117.997 7.63867 120.237 7.63867C122.483 7.63867 124.303 9.43904 124.303 11.6469C124.303 13.8609 122.483 15.6552 120.237 15.6552ZM120.237 8.02185C118.213 8.02185 116.559 9.65192 116.559 11.6469C116.559 13.648 118.213 15.272 120.237 15.272C122.267 15.272 123.915 13.648 123.915 11.6469C123.915 9.65192 122.267 8.02185 120.237 8.02185Z" fill="#46D35B"></path>
  <path fill-rule="evenodd" clip-rule="evenodd" d="M127.979 15.6552C125.739 15.6552 123.912 13.8609 123.912 11.6469C123.912 9.43904 125.739 7.63867 127.979 7.63867C130.225 7.63867 132.046 9.43904 132.046 11.6469C132.046 13.8609 130.225 15.6552 127.979 15.6552ZM127.979 8.02185C125.955 8.02185 124.301 9.65192 124.301 11.6469C124.301 13.648 125.955 15.272 127.979 15.272C130.009 15.272 131.657 13.648 131.657 11.6469C131.657 9.65192 130.009 8.02185 127.979 8.02185Z" fill="#46D35B"></path>
  <path fill-rule="evenodd" clip-rule="evenodd" d="M104.736 23.287C102.496 23.287 100.669 21.4927 100.669 19.2788C100.669 17.0709 102.496 15.2705 104.736 15.2705C106.982 15.2705 108.802 17.0709 108.802 19.2788C108.802 21.4927 106.982 23.287 104.736 23.287ZM104.736 15.6537C102.712 15.6537 101.058 17.2838 101.058 19.2788C101.058 21.2799 102.712 22.9038 104.736 22.9038C106.766 22.9038 108.414 21.2799 108.414 19.2788C108.414 17.2838 106.766 15.6537 104.736 15.6537Z" fill="#46D35B"></path>
  <path fill-rule="evenodd" clip-rule="evenodd" d="M112.482 23.287C110.242 23.287 108.415 21.4927 108.415 19.2788C108.415 17.0709 110.242 15.2705 112.482 15.2705C114.728 15.2705 116.548 17.0709 116.548 19.2788C116.548 21.4927 114.728 23.287 112.482 23.287ZM112.482 15.6537C110.458 15.6537 108.804 17.2838 108.804 19.2788C108.804 21.2799 110.458 22.9038 112.482 22.9038C114.512 22.9038 116.16 21.2799 116.16 19.2788C116.16 17.2838 114.512 15.6537 112.482 15.6537Z" fill="#46D35B"></path>
  <path fill-rule="evenodd" clip-rule="evenodd" d="M120.237 23.287C117.997 23.287 116.17 21.4927 116.17 19.2788C116.17 17.0709 117.997 15.2705 120.237 15.2705C122.483 15.2705 124.303 17.0709 124.303 19.2788C124.303 21.4927 122.483 23.287 120.237 23.287ZM120.237 15.6537C118.213 15.6537 116.559 17.2838 116.559 19.2788C116.559 21.2799 118.213 22.9038 120.237 22.9038C122.267 22.9038 123.915 21.2799 123.915 19.2788C123.915 17.2838 122.267 15.6537 120.237 15.6537Z" fill="#46D35B"></path>
  <path fill-rule="evenodd" clip-rule="evenodd" d="M127.979 23.287C125.739 23.287 123.912 21.4927 123.912 19.2788C123.912 17.0709 125.739 15.2705 127.979 15.2705C130.225 15.2705 132.046 17.0709 132.046 19.2788C132.046 21.4927 130.225 23.287 127.979 23.287ZM127.979 15.6537C125.955 15.6537 124.301 17.2838 124.301 19.2788C124.301 21.2799 125.955 22.9038 127.979 22.9038C130.009 22.9038 131.657 21.2799 131.657 19.2788C131.657 17.2838 130.009 15.6537 127.979 15.6537Z" fill="#46D35B"></path>
  <path fill-rule="evenodd" clip-rule="evenodd" d="M104.736 30.9218C103.65 30.9218 102.631 30.5082 101.86 29.7479C101.095 28.9937 100.669 27.984 100.669 26.9135C100.669 25.843 101.095 24.8395 101.86 24.0792C102.631 23.325 103.65 22.9053 104.736 22.9053C106.982 22.9053 108.802 24.7056 108.802 26.9135C108.802 27.984 108.383 28.9937 107.611 29.7479C106.846 30.5082 105.822 30.9218 104.736 30.9218ZM104.736 23.2885C103.754 23.2885 102.835 23.6656 102.138 24.3529C101.44 25.0341 101.058 25.9464 101.058 26.9135C101.058 27.8806 101.44 28.793 102.138 29.4803C102.835 30.1615 103.754 30.5386 104.736 30.5386C105.717 30.5386 106.642 30.1615 107.34 29.4803C108.031 28.793 108.414 27.8806 108.414 26.9135C108.414 24.9185 106.766 23.2885 104.736 23.2885Z" fill="#46D35B"></path>
  <path fill-rule="evenodd" clip-rule="evenodd" d="M112.482 30.9218C110.242 30.9218 108.415 29.1275 108.415 26.9135C108.415 24.7056 110.242 22.9053 112.482 22.9053C114.728 22.9053 116.548 24.7056 116.548 26.9135C116.548 29.1275 114.728 30.9218 112.482 30.9218ZM112.482 23.2885C110.458 23.2885 108.804 24.9185 108.804 26.9135C108.804 28.9146 110.458 30.5386 112.482 30.5386C114.512 30.5386 116.16 28.9146 116.16 26.9135C116.16 24.9185 114.512 23.2885 112.482 23.2885Z" fill="#46D35B"></path>
  <path fill-rule="evenodd" clip-rule="evenodd" d="M120.237 30.9218C117.997 30.9218 116.17 29.1275 116.17 26.9135C116.17 24.7056 117.997 22.9053 120.237 22.9053C122.483 22.9053 124.303 24.7056 124.303 26.9135C124.303 29.1275 122.483 30.9218 120.237 30.9218ZM120.237 23.2885C118.213 23.2885 116.559 24.9185 116.559 26.9135C116.559 28.9146 118.213 30.5386 120.237 30.5386C122.267 30.5386 123.915 28.9146 123.915 26.9135C123.915 24.9185 122.267 23.2885 120.237 23.2885Z" fill="#46D35B"></path>
  <path fill-rule="evenodd" clip-rule="evenodd" d="M127.979 30.9218C125.739 30.9218 123.912 29.1275 123.912 26.9135C123.912 24.7056 125.739 22.9053 127.979 22.9053C130.225 22.9053 132.046 24.7056 132.046 26.9135C132.046 29.1275 130.225 30.9218 127.979 30.9218ZM127.979 23.2885C125.955 23.2885 124.301 24.9185 124.301 26.9135C124.301 28.9146 125.955 30.5386 127.979 30.5386C130.009 30.5386 131.657 28.9146 131.657 26.9135C131.657 24.9185 130.009 23.2885 127.979 23.2885Z" fill="#46D35B"></path>
  <path fill-rule="evenodd" clip-rule="evenodd" d="M97.0013 38.5478C95.9152 38.5478 94.897 38.1342 94.1256 37.3739C93.3604 36.6197 92.9346 35.61 92.9346 34.5395C92.9346 33.469 93.3604 32.4654 94.1256 31.7051C94.897 30.9509 95.9152 30.5312 97.0013 30.5312C99.2475 30.5312 101.068 32.3316 101.068 34.5395C101.068 35.61 100.648 36.6197 99.877 37.3739C99.1118 38.1342 98.0874 38.5478 97.0013 38.5478ZM97.0013 30.9144C96.0201 30.9144 95.1006 31.2915 94.4033 31.9788C93.7121 32.6601 93.3295 33.5724 93.3295 34.5395C93.3295 35.5066 93.7121 36.4189 94.4033 37.1002C95.1006 37.7875 96.0201 38.1646 97.0013 38.1646C97.9886 38.1646 98.9081 37.7875 99.6054 37.1002C100.297 36.4189 100.679 35.5066 100.679 34.5395C100.679 32.5445 99.0315 30.9144 97.0013 30.9144Z" fill="#46D35B"></path>
  <path d="M85.2987 4.08793V34.5543C85.2987 35.6005 84.8667 36.5493 84.1694 37.2366C83.4721 37.9239 82.5094 38.3497 81.4418 38.3497C80.3804 38.3497 79.4177 37.9239 78.7204 37.2366C78.023 36.5493 77.5911 35.6005 77.5911 34.5543V19.3363C77.5911 17.463 76.2396 15.8025 74.3636 15.4984C73.0307 15.2855 71.8027 15.7356 70.9572 16.5689C70.2537 17.2622 69.8218 18.2233 69.8218 19.2755C69.8218 20.3338 69.3836 21.2948 68.6801 21.9882C67.9766 22.6755 67.0078 23.1074 65.934 23.1074C64.8603 23.1074 63.8914 22.6755 63.1879 21.9882C62.4968 21.307 62.0648 20.3703 62.0525 19.3363C62.0216 17.5177 60.7935 15.8937 58.9854 15.5288C57.597 15.249 56.2949 15.7052 55.4186 16.5689C54.7151 17.2622 54.2769 18.2233 54.2769 19.2755V34.5543C54.2769 35.6005 53.845 36.5493 53.1476 37.2366C52.4503 37.9239 51.4876 38.3497 50.4262 38.3497C49.3586 38.3497 48.396 37.9239 47.6986 37.2366C47.0013 36.5493 46.5693 35.6005 46.5693 34.5543V4.00886C46.5693 2.95662 47.0013 2.0017 47.7048 1.31439C48.5379 0.487196 49.7474 0.043184 51.0557 0.237818C52.9502 0.52977 54.2831 2.19024 54.314 4.08184C54.3325 5.10976 54.7645 6.03428 55.4495 6.70941C56.1529 7.4028 57.1156 7.82856 58.1894 7.82856C60.3246 7.82856 62.0586 9.53769 62.0586 11.6483C62.0586 12.7005 62.4968 13.6554 63.1941 14.3427C63.8976 15.0361 64.8664 15.4619 65.934 15.4619C67.0016 15.4619 67.9705 15.0361 68.674 14.3427C69.3713 13.6554 69.8094 12.7005 69.8094 11.6483C69.8094 10.5899 70.2414 9.63501 70.9449 8.94771C71.6422 8.25432 72.6111 7.82856 73.6787 7.82856C74.7524 7.82856 75.7213 7.4028 76.4186 6.70941C77.1221 6.02211 77.5541 5.06718 77.5541 4.00886C77.5541 2.95662 77.986 2.0017 78.6895 1.31439C79.4856 0.52369 80.6334 0.0796787 81.8799 0.219572C83.8485 0.438536 85.2987 2.13551 85.2987 4.08793Z" fill="#E96E00"></path>
  <path fill-rule="evenodd" clip-rule="evenodd" d="M58.2825 8.02259C57.1964 8.02259 56.172 7.60291 55.4068 6.8487C54.6354 6.08841 54.2158 5.07874 54.2158 4.00825C54.2158 2.94384 54.6354 1.93418 55.4068 1.17388C56.172 0.419676 57.1964 0 58.2825 0C60.5226 0 62.3492 1.80037 62.3492 4.00825C62.3492 5.07874 61.9234 6.08841 61.1582 6.8487C60.3868 7.60291 59.3686 8.02259 58.2825 8.02259ZM58.2825 0.389269C57.2951 0.389269 56.3757 0.766376 55.6784 1.4476C54.9872 2.1349 54.6046 3.04116 54.6046 4.00825C54.6046 4.98142 54.9872 5.88769 55.6784 6.57499C56.3757 7.25621 57.2951 7.63332 58.2825 7.63332C59.2637 7.63332 60.1832 7.25621 60.8805 6.57499C61.5717 5.88769 61.9543 4.98142 61.9543 4.00825C61.9543 2.01325 60.3066 0.389269 58.2825 0.389269Z" fill="#46D35B"></path>
  <path fill-rule="evenodd" clip-rule="evenodd" d="M66.027 8.02259C63.7807 8.02259 61.9541 6.22222 61.9541 4.00825C61.9541 1.80037 63.7807 0 66.027 0C68.267 0 70.0937 1.80037 70.0937 4.00825C70.0937 6.22222 68.267 8.02259 66.027 8.02259ZM66.027 0.389269C63.9967 0.389269 62.3491 2.01325 62.3491 4.00825C62.3491 6.00934 63.9967 7.63332 66.027 7.63332C68.0511 7.63332 69.6987 6.00934 69.6987 4.00825C69.6987 2.01325 68.0511 0.389269 66.027 0.389269Z" fill="#46D35B"></path>
  <path fill-rule="evenodd" clip-rule="evenodd" d="M73.7591 8.02259C72.673 8.02259 71.6548 7.60291 70.8896 6.8487C70.1182 6.08841 69.6924 5.07874 69.6924 4.00825C69.6924 2.93776 70.1182 1.93418 70.8896 1.17388C71.6548 0.419676 72.673 0 73.7591 0C76.0054 0 77.832 1.80037 77.832 4.00825C77.832 5.07874 77.4062 6.08841 76.6348 6.8487C75.8696 7.60291 74.8514 8.02259 73.7591 8.02259ZM73.7591 0.389269C72.7779 0.389269 71.8584 0.766376 71.1611 1.4476C70.4699 2.1349 70.0873 3.04116 70.0873 4.00825C70.0873 4.98142 70.4699 5.88769 71.1611 6.57499C71.8584 7.25621 72.7779 7.63332 73.7591 7.63332C74.7465 7.63332 75.6659 7.25621 76.3633 6.57499C77.0544 5.88769 77.437 4.98142 77.437 4.00825C77.437 2.01325 75.7894 0.389269 73.7591 0.389269Z" fill="#46D35B"></path>
  <path fill-rule="evenodd" clip-rule="evenodd" d="M66.027 15.6552C64.9409 15.6552 63.9165 15.2416 63.1513 14.4813C62.3799 13.7271 61.9541 12.7174 61.9541 11.6469C61.9541 10.5764 62.3799 9.57285 63.1513 8.81256C63.9165 8.05835 64.9347 7.63867 66.027 7.63867C68.267 7.63867 70.0937 9.43904 70.0937 11.6469C70.0937 12.7174 69.6679 13.7271 68.9027 14.4813C68.1313 15.2416 67.1131 15.6552 66.027 15.6552ZM66.027 8.02794C65.0396 8.02794 64.1201 8.40504 63.4228 9.08626C62.7317 9.77356 62.3491 10.6798 62.3491 11.6469C62.3491 12.6201 62.7317 13.5264 63.4228 14.2137C64.1201 14.8949 65.0396 15.272 66.027 15.272C67.0082 15.272 67.9277 14.8949 68.625 14.2137C69.3161 13.5264 69.6987 12.6201 69.6987 11.6469C69.6987 9.65192 68.0511 8.02794 66.027 8.02794Z" fill="#46D35B"></path>
  <path fill-rule="evenodd" clip-rule="evenodd" d="M58.2825 23.287C57.1964 23.287 56.172 22.8734 55.4068 22.1131C54.6354 21.3589 54.2158 20.3493 54.2158 19.2788C54.2158 18.2083 54.6354 17.2047 55.4068 16.4444C56.172 15.6902 57.1964 15.2705 58.2825 15.2705C60.5226 15.2705 62.3492 17.0709 62.3492 19.2788C62.3492 20.3493 61.9234 21.3589 61.1582 22.1131C60.3868 22.8734 59.3686 23.287 58.2825 23.287ZM58.2825 15.6537C57.2951 15.6537 56.3757 16.0308 55.6784 16.7181C54.9872 17.4054 54.6046 18.3117 54.6046 19.2788C54.6046 20.2519 54.9872 21.1582 55.6784 21.8455C56.3757 22.5267 57.2951 22.9038 58.2825 22.9038C59.2637 22.9038 60.1832 22.5267 60.8805 21.8455C61.5717 21.1582 61.9543 20.2519 61.9543 19.2788C61.9543 17.2838 60.3066 15.6537 58.2825 15.6537Z" fill="#46D35B"></path>
  <path fill-rule="evenodd" clip-rule="evenodd" d="M73.7591 23.287C72.673 23.287 71.6548 22.8734 70.8896 22.1131C70.1182 21.3589 69.6924 20.3493 69.6924 19.2788C69.6924 18.2083 70.1182 17.2047 70.8896 16.4444C71.6548 15.6902 72.673 15.2705 73.7591 15.2705C76.0054 15.2705 77.832 17.0709 77.832 19.2788C77.832 20.3493 77.4062 21.3589 76.6348 22.1131C75.8696 22.8734 74.8514 23.287 73.7591 23.287ZM73.7591 15.6537C72.7779 15.6537 71.8584 16.0308 71.1611 16.7181C70.4699 17.4054 70.0873 18.3117 70.0873 19.2788C70.0873 20.2519 70.4699 21.1582 71.1611 21.8455C71.8584 22.5267 72.7779 22.9038 73.7591 22.9038C74.7465 22.9038 75.6659 22.5267 76.3633 21.8455C77.0544 21.1582 77.437 20.2519 77.437 19.2788C77.437 17.2838 75.7894 15.6537 73.7591 15.6537Z" fill="#46D35B"></path>
  <path fill-rule="evenodd" clip-rule="evenodd" d="M58.2825 30.9218C56.0363 30.9218 54.2158 29.1275 54.2158 26.9135C54.2158 24.7056 56.0363 22.9053 58.2825 22.9053C60.5226 22.9053 62.3492 24.7056 62.3492 26.9135C62.3492 29.1275 60.5226 30.9218 58.2825 30.9218ZM58.2825 23.2885C56.2522 23.2885 54.6046 24.9185 54.6046 26.9135C54.6046 28.9146 56.2522 30.5386 58.2825 30.5386C60.3066 30.5386 61.9543 28.9146 61.9543 26.9135C61.9543 24.9185 60.3066 23.2885 58.2825 23.2885Z" fill="#46D35B"></path>
  <path fill-rule="evenodd" clip-rule="evenodd" d="M66.027 30.9218C63.7807 30.9218 61.9541 29.1275 61.9541 26.9135C61.9541 24.7056 63.7807 22.9053 66.027 22.9053C68.267 22.9053 70.0937 24.7056 70.0937 26.9135C70.0937 29.1275 68.267 30.9218 66.027 30.9218ZM66.027 23.2885C63.9967 23.2885 62.3491 24.9185 62.3491 26.9135C62.3491 28.9146 63.9967 30.5386 66.027 30.5386C68.0511 30.5386 69.6987 28.9146 69.6987 26.9135C69.6987 24.9185 68.0511 23.2885 66.027 23.2885Z" fill="#46D35B"></path>
  <path fill-rule="evenodd" clip-rule="evenodd" d="M73.7653 30.9218C71.519 30.9218 69.6924 29.1275 69.6924 26.9135C69.6924 24.7056 71.519 22.9053 73.7653 22.9053C76.0054 22.9053 77.832 24.7056 77.832 26.9135C77.832 29.1275 76.0054 30.9218 73.7653 30.9218ZM73.7653 23.2885C71.735 23.2885 70.0873 24.9185 70.0873 26.9135C70.0873 28.9146 71.735 30.5386 73.7653 30.5386C75.7894 30.5386 77.437 28.9146 77.437 26.9135C77.437 24.9185 75.7894 23.2885 73.7653 23.2885Z" fill="#46D35B"></path>
  <path fill-rule="evenodd" clip-rule="evenodd" d="M58.2825 38.5478C56.0363 38.5478 54.2158 36.7535 54.2158 34.5395C54.2158 32.3316 56.0363 30.5312 58.2825 30.5312C60.5226 30.5312 62.3492 32.3316 62.3492 34.5395C62.3492 36.7535 60.5226 38.5478 58.2825 38.5478ZM58.2825 30.9144C56.2522 30.9144 54.6046 32.5445 54.6046 34.5395C54.6046 36.5406 56.2522 38.1646 58.2825 38.1646C60.3066 38.1646 61.9543 36.5406 61.9543 34.5395C61.9543 32.5445 60.3066 30.9144 58.2825 30.9144Z" fill="#46D35B"></path>
  <path fill-rule="evenodd" clip-rule="evenodd" d="M66.027 38.5478C63.7807 38.5478 61.9541 36.7535 61.9541 34.5395C61.9541 32.3316 63.7807 30.5312 66.027 30.5312C68.267 30.5312 70.0937 32.3316 70.0937 34.5395C70.0937 36.7535 68.267 38.5478 66.027 38.5478ZM66.027 30.9144C63.9967 30.9144 62.3491 32.5445 62.3491 34.5395C62.3491 36.5406 63.9967 38.1646 66.027 38.1646C68.0511 38.1646 69.6987 36.5406 69.6987 34.5395C69.6987 32.5445 68.0511 30.9144 66.027 30.9144Z" fill="#46D35B"></path>
  <path fill-rule="evenodd" clip-rule="evenodd" d="M73.7653 38.5478C71.519 38.5478 69.6924 36.7535 69.6924 34.5395C69.6924 32.3316 71.519 30.5312 73.7653 30.5312C76.0054 30.5312 77.832 32.3316 77.832 34.5395C77.832 36.7535 76.0054 38.5478 73.7653 38.5478ZM73.7653 30.9144C71.735 30.9144 70.0873 32.5445 70.0873 34.5395C70.0873 36.5406 71.735 38.1646 73.7653 38.1646C75.7894 38.1646 77.437 36.5406 77.437 34.5395C77.437 32.5445 75.7894 30.9144 73.7653 30.9144Z" fill="#46D35B"></path>
  <path d="M38.9182 4.006C38.9182 5.06433 38.4862 6.01926 37.7827 6.70656C37.0854 7.39994 36.1166 7.8257 35.049 7.8257H27.3043C26.2367 7.8257 25.2679 8.25147 24.5644 8.94485C23.8671 9.63215 23.4289 10.5871 23.4289 11.6393V34.5393C23.4289 35.5976 22.9969 36.5465 22.2934 37.2398C21.5961 37.9271 20.6273 38.359 19.5597 38.359C18.4921 38.359 17.5232 37.9271 16.8197 37.2398C16.1224 36.5465 15.6843 35.5976 15.6843 34.5393V11.6393C15.6843 9.53484 13.9502 7.8257 11.8151 7.8257H4.07042C3.00283 7.8257 2.03398 7.39994 1.33048 6.70656C0.633154 6.01926 0.201172 5.06433 0.201172 4.006C0.201172 2.95376 0.633154 1.99884 1.33048 1.31154C2.03398 0.618153 3.00283 0.192383 4.07042 0.192383H35.049C37.1842 0.192383 38.9182 1.90152 38.9182 4.006Z" fill="#E96E00"></path>
  <path fill-rule="evenodd" clip-rule="evenodd" d="M4.06672 15.6552C1.82664 15.6552 0 13.8609 0 11.6469C0 9.43904 1.82664 7.63867 4.06672 7.63867C6.30681 7.63867 8.13341 9.43904 8.13341 11.6469C8.13341 13.8609 6.30681 15.6552 4.06672 15.6552ZM4.06672 8.02794C2.03646 8.02794 0.388778 9.65192 0.388778 11.6469C0.388778 13.648 2.03646 15.272 4.06672 15.272C6.09699 15.272 7.74467 13.648 7.74467 11.6469C7.74467 9.65192 6.09699 8.02794 4.06672 8.02794Z" fill="#46D35B"></path>
  <path fill-rule="evenodd" clip-rule="evenodd" d="M11.805 15.6613C10.7189 15.6613 9.69449 15.2416 8.92929 14.4813C8.15791 13.7271 7.73828 12.7174 7.73828 11.6469C7.73828 10.5764 8.15791 9.57285 8.92929 8.81256C9.69449 8.05835 10.7189 7.63867 11.805 7.63867C14.0451 7.63867 15.8717 9.43904 15.8717 11.6469C15.8717 12.7174 15.4459 13.7271 14.6807 14.4813C13.9155 15.2416 12.8911 15.6613 11.805 15.6613ZM11.805 8.02794C10.8238 8.02794 9.89811 8.39896 9.20695 9.08626C8.50963 9.77356 8.12702 10.6798 8.12702 11.6469C8.12702 12.6201 8.50963 13.5264 9.20695 14.2137C9.89811 14.8949 10.8238 15.272 11.805 15.272C12.7862 15.272 13.7118 14.8949 14.403 14.2137C15.1003 13.5264 15.4829 12.6201 15.4829 11.6469C15.4829 9.65192 13.8291 8.02794 11.805 8.02794Z" fill="#46D35B"></path>
  <path fill-rule="evenodd" clip-rule="evenodd" d="M27.3059 15.6613C26.2198 15.6613 25.1955 15.2416 24.4303 14.4813C23.6589 13.7271 23.2393 12.7174 23.2393 11.6469C23.2393 10.5764 23.6589 9.57285 24.4303 8.81256C25.1955 8.05835 26.2198 7.63867 27.3059 7.63867C29.546 7.63867 31.3727 9.43904 31.3727 11.6469C31.3727 12.7174 30.9469 13.7271 30.1817 14.4813C29.4103 15.2416 28.392 15.6613 27.3059 15.6613ZM27.3059 8.02794C26.3248 8.02794 25.3991 8.39896 24.708 9.08626C24.0106 9.77356 23.628 10.6798 23.628 11.6469C23.628 12.6201 24.0106 13.5264 24.708 14.2137C25.3991 14.8949 26.3248 15.272 27.3059 15.272C28.2871 15.272 29.2128 14.8949 29.904 14.2137C30.6013 13.5264 30.9839 12.6201 30.9839 11.6469C30.9839 9.65192 29.33 8.02794 27.3059 8.02794Z" fill="#46D35B"></path>
  <path fill-rule="evenodd" clip-rule="evenodd" d="M35.0433 15.6552C32.797 15.6552 30.9766 13.8609 30.9766 11.6469C30.9766 9.43904 32.797 7.63867 35.0433 7.63867C37.2834 7.63867 39.11 9.43904 39.11 11.6469C39.11 13.8609 37.2834 15.6552 35.0433 15.6552ZM35.0433 8.02794C33.013 8.02794 31.3653 9.65192 31.3653 11.6469C31.3653 13.648 33.013 15.272 35.0433 15.272C37.0674 15.272 38.7212 13.648 38.7212 11.6469C38.7212 9.65192 37.0674 8.02794 35.0433 8.02794Z" fill="#46D35B"></path>
  <path fill-rule="evenodd" clip-rule="evenodd" d="M4.06672 23.286C1.82664 23.286 0 21.4918 0 19.2778C0 17.0699 1.82664 15.2695 4.06672 15.2695C6.30681 15.2695 8.13341 17.0699 8.13341 19.2778C8.13341 21.4918 6.30681 23.286 4.06672 23.286ZM4.06672 15.6527C2.03646 15.6527 0.388778 17.2828 0.388778 19.2778C0.388778 21.2789 2.03646 22.9029 4.06672 22.9029C6.09699 22.9029 7.74467 21.2789 7.74467 19.2778C7.74467 17.2828 6.09699 15.6527 4.06672 15.6527Z" fill="#46D35B"></path>
  <path fill-rule="evenodd" clip-rule="evenodd" d="M11.805 23.287C9.56488 23.287 7.73828 21.4927 7.73828 19.2788C7.73828 17.0709 9.56488 15.2705 11.805 15.2705C14.0451 15.2705 15.8717 17.0709 15.8717 19.2788C15.8717 21.4927 14.0451 23.287 11.805 23.287ZM11.805 15.6537C9.7747 15.6537 8.12702 17.2838 8.12702 19.2788C8.12702 21.2799 9.7747 22.9038 11.805 22.9038C13.8352 22.9038 15.4829 21.2799 15.4829 19.2788C15.4829 17.2838 13.8352 15.6537 11.805 15.6537Z" fill="#46D35B"></path>
  <path fill-rule="evenodd" clip-rule="evenodd" d="M27.3059 23.287C25.0597 23.287 23.2393 21.4927 23.2393 19.2788C23.2393 17.0709 25.0597 15.2705 27.3059 15.2705C29.546 15.2705 31.3727 17.0709 31.3727 19.2788C31.3727 21.4927 29.546 23.287 27.3059 23.287ZM27.3059 15.6537C25.2757 15.6537 23.628 17.2838 23.628 19.2788C23.628 21.2799 25.2757 22.9038 27.3059 22.9038C29.33 22.9038 30.9839 21.2799 30.9839 19.2788C30.9839 17.2838 29.33 15.6537 27.3059 15.6537Z" fill="#46D35B"></path>
  <path fill-rule="evenodd" clip-rule="evenodd" d="M35.0433 23.286C32.797 23.286 30.9766 21.4918 30.9766 19.2778C30.9766 17.0699 32.797 15.2695 35.0433 15.2695C37.2834 15.2695 39.11 17.0699 39.11 19.2778C39.11 21.4918 37.2834 23.286 35.0433 23.286ZM35.0433 15.6527C33.013 15.6527 31.3653 17.2828 31.3653 19.2778C31.3653 21.2789 33.013 22.9029 35.0433 22.9029C37.0674 22.9029 38.7212 21.2789 38.7212 19.2778C38.7212 17.2828 37.0674 15.6527 35.0433 15.6527Z" fill="#46D35B"></path>
  <path fill-rule="evenodd" clip-rule="evenodd" d="M4.06672 30.9218C1.82664 30.9218 0 29.1275 0 26.9135C0 24.7056 1.82664 22.9053 4.06672 22.9053C6.30681 22.9053 8.13341 24.7056 8.13341 26.9135C8.13341 29.1275 6.30681 30.9218 4.06672 30.9218ZM4.06672 23.2885C2.03646 23.2885 0.388778 24.9185 0.388778 26.9135C0.388778 28.9146 2.03646 30.5386 4.06672 30.5386C6.09699 30.5386 7.74467 28.9146 7.74467 26.9135C7.74467 24.9185 6.09699 23.2885 4.06672 23.2885Z" fill="#46D35B"></path>
  <path fill-rule="evenodd" clip-rule="evenodd" d="M11.805 30.9218C9.56488 30.9218 7.73828 29.1275 7.73828 26.9135C7.73828 24.7056 9.56488 22.9053 11.805 22.9053C14.0451 22.9053 15.8717 24.7056 15.8717 26.9135C15.8717 29.1275 14.0451 30.9218 11.805 30.9218ZM11.805 23.2885C9.7747 23.2885 8.12702 24.9185 8.12702 26.9135C8.12702 28.9146 9.7747 30.5386 11.805 30.5386C13.8352 30.5386 15.4829 28.9146 15.4829 26.9135C15.4829 24.9185 13.8352 23.2885 11.805 23.2885Z" fill="#46D35B"></path>
  <path fill-rule="evenodd" clip-rule="evenodd" d="M27.3059 30.9218C25.0597 30.9218 23.2393 29.1275 23.2393 26.9135C23.2393 24.7056 25.0597 22.9053 27.3059 22.9053C29.546 22.9053 31.3727 24.7056 31.3727 26.9135C31.3727 29.1275 29.546 30.9218 27.3059 30.9218ZM27.3059 23.2885C25.2757 23.2885 23.628 24.9185 23.628 26.9135C23.628 28.9146 25.2757 30.5386 27.3059 30.5386C29.33 30.5386 30.9839 28.9146 30.9839 26.9135C30.9839 24.9185 29.33 23.2885 27.3059 23.2885Z" fill="#46D35B"></path>
  <path fill-rule="evenodd" clip-rule="evenodd" d="M35.0433 30.9218C32.797 30.9218 30.9766 29.1275 30.9766 26.9135C30.9766 24.7056 32.797 22.9053 35.0433 22.9053C37.2834 22.9053 39.11 24.7056 39.11 26.9135C39.11 29.1275 37.2834 30.9218 35.0433 30.9218ZM35.0433 23.2885C33.013 23.2885 31.3653 24.9185 31.3653 26.9135C31.3653 28.9146 33.013 30.5386 35.0433 30.5386C37.0674 30.5386 38.7212 28.9146 38.7212 26.9135C38.7212 24.9185 37.0674 23.2885 35.0433 23.2885Z" fill="#46D35B"></path>
  <path fill-rule="evenodd" clip-rule="evenodd" d="M4.06672 38.5478C1.82664 38.5478 0 36.7535 0 34.5395C0 32.3316 1.82664 30.5312 4.06672 30.5312C6.30681 30.5312 8.13341 32.3316 8.13341 34.5395C8.13341 36.7535 6.30681 38.5478 4.06672 38.5478ZM4.06672 30.9144C2.03646 30.9144 0.388778 32.5445 0.388778 34.5395C0.388778 36.5406 2.03646 38.1646 4.06672 38.1646C6.09699 38.1646 7.74467 36.5406 7.74467 34.5395C7.74467 32.5445 6.09699 30.9144 4.06672 30.9144Z" fill="#46D35B"></path>
  <path fill-rule="evenodd" clip-rule="evenodd" d="M11.805 38.5478C9.56488 38.5478 7.73828 36.7535 7.73828 34.5395C7.73828 32.3316 9.56488 30.5312 11.805 30.5312C14.0451 30.5312 15.8717 32.3316 15.8717 34.5395C15.8717 36.7535 14.0451 38.5478 11.805 38.5478ZM11.805 30.9144C9.7747 30.9144 8.12702 32.5445 8.12702 34.5395C8.12702 36.5406 9.7747 38.1646 11.805 38.1646C13.8352 38.1646 15.4829 36.5406 15.4829 34.5395C15.4829 32.5445 13.8352 30.9144 11.805 30.9144Z" fill="#46D35B"></path>
  <path fill-rule="evenodd" clip-rule="evenodd" d="M27.3059 38.5478C25.0597 38.5478 23.2393 36.7535 23.2393 34.5395C23.2393 32.3316 25.0597 30.5312 27.3059 30.5312C29.546 30.5312 31.3727 32.3316 31.3727 34.5395C31.3727 36.7535 29.546 38.5478 27.3059 38.5478ZM27.3059 30.9144C25.2757 30.9144 23.628 32.5445 23.628 34.5395C23.628 36.5406 25.2757 38.1646 27.3059 38.1646C29.33 38.1646 30.9839 36.5406 30.9839 34.5395C30.9839 32.5445 29.33 30.9144 27.3059 30.9144Z" fill="#46D35B"></path>
  <path fill-rule="evenodd" clip-rule="evenodd" d="M35.0433 38.5478C32.797 38.5478 30.9766 36.7535 30.9766 34.5395C30.9766 32.3316 32.797 30.5312 35.0433 30.5312C37.2834 30.5312 39.11 32.3316 39.11 34.5395C39.11 36.7535 37.2834 38.5478 35.0433 38.5478ZM35.0433 30.9144C33.013 30.9144 31.3653 32.5445 31.3653 34.5395C31.3653 36.5406 33.013 38.1646 35.0433 38.1646C37.0674 38.1646 38.7212 36.5406 38.7212 34.5395C38.7212 32.5445 37.0674 30.9144 35.0433 30.9144Z" fill="#46D35B"></path>
</svg>
